<?xml version="1.0" standalone="no"?>
<!DOCTYPE svg PUBLIC "-//W3C//DTD SVG 20010904//EN"
 "http://www.w3.org/TR/2001/REC-SVG-20010904/DTD/svg10.dtd">
<svg version="1.0" xmlns="http://www.w3.org/2000/svg"
 width="900.000000pt" height="900.000000pt" viewBox="0 0 900.000000 900.000000"
 preserveAspectRatio="xMidYMid meet">
<metadata>
Created by potrace 1.10, written by Peter Selinger 2001-2011
</metadata>
<g transform="translate(0.000000,900.000000) scale(0.100000,-0.100000)"
fill="#000000" stroke="none">
<path d="M3685 7740 c-27 -5 -74 -9 -102 -9 -93 -2 -406 -66 -513 -106 -19 -7
-64 -22 -100 -33 -120 -37 -379 -154 -491 -221 -132 -79 -292 -187 -360 -244
-19 -16 -43 -36 -54 -44 -64 -52 -227 -197 -237 -212 -7 -10 -51 -59 -98 -110
-46 -51 -90 -100 -97 -109 -7 -9 -34 -45 -60 -79 -79 -103 -106 -143 -172
-253 -34 -58 -66 -112 -71 -120 -30 -49 -158 -319 -171 -360 -4 -14 -17 -50
-29 -80 -73 -191 -130 -422 -166 -680 -13 -93 -15 -177 -11 -445 2 -191 9
-359 16 -400 43 -245 69 -353 138 -560 35 -108 52 -153 73 -200 7 -16 22 -50
33 -75 33 -74 107 -223 128 -255 10 -16 23 -39 28 -50 5 -11 21 -37 35 -58 14
-21 26 -40 26 -42 0 -14 140 -205 243 -330 64 -78 244 -258 352 -352 74 -64
201 -163 209 -163 3 0 34 -20 69 -45 36 -25 67 -45 70 -45 3 0 25 -12 49 -28
65 -41 77 -48 163 -93 44 -23 84 -45 89 -50 6 -5 16 -9 23 -9 7 0 41 -13 75
-28 120 -55 265 -108 334 -122 22 -5 51 -13 65 -18 13 -5 58 -17 99 -26 41 -8
107 -22 145 -30 97 -21 183 -25 195 -11 6 7 11 291 12 761 l3 749 1215 5
c1308 6 1254 4 1432 56 26 8 53 14 60 14 21 0 290 90 326 109 9 5 51 26 92 46
41 20 84 42 95 48 10 7 37 23 60 37 22 13 48 29 57 35 45 27 188 128 228 161
96 80 299 294 371 389 132 176 238 355 298 505 13 30 28 69 36 85 7 17 20 57
30 90 10 33 23 78 30 100 16 53 41 169 60 280 21 125 21 532 0 664 -39 239
-80 389 -160 574 -25 59 -56 127 -69 150 -13 23 -38 69 -56 102 -113 207 -337
476 -526 631 -69 57 -238 174 -309 215 -257 148 -591 259 -870 289 -117 12
-2260 12 -2340 0z m2290 -1406 c170 -56 275 -117 379 -221 125 -125 196 -247
251 -436 23 -83 23 -362 -1 -444 -54 -187 -124 -310 -241 -425 -63 -62 -155
-138 -167 -138 -3 0 -27 -12 -53 -28 -46 -26 -102 -46 -208 -74 -66 -17 -283
-17 -360 0 -197 45 -388 171 -511 337 -140 192 -206 447 -170 666 31 187 80
313 171 434 82 110 188 202 295 255 36 18 73 37 84 42 26 14 122 40 181 49 78
12 293 2 350 -17z"/>
</g>
</svg>
