<svg version="1.1" id="Layer_1" xmlns="http://www.w3.org/2000/svg" xmlns:xlink="http://www.w3.org/1999/xlink" x="0px" y="0px"
	 width="100%" viewBox="0 0 500 500" enable-background="new 0 0 500 500" xml:space="preserve">
<path fill="#FFFFFF" opacity="1.000000" stroke="none" 
	d="
M336.000000,501.000000 
	C224.000031,501.000000 112.500053,501.000000 1.000060,501.000000 
	C1.000040,334.333405 1.000040,167.666794 1.000020,1.000149 
	C167.666565,1.000100 334.333130,1.000100 500.999756,1.000050 
	C500.999847,167.666519 500.999847,334.333038 500.999939,500.999786 
	C446.166656,501.000000 391.333344,501.000000 336.000000,501.000000 
M333.209442,70.108086 
	C295.059387,70.070587 256.909332,70.011192 218.759293,70.001564 
	C178.076172,69.991295 142.139435,83.453178 112.171371,110.612488 
	C63.317364,154.887650 45.014820,210.667557 57.532658,274.942963 
	C68.799797,332.796417 102.832840,374.174652 157.040146,398.242096 
	C171.383514,404.610382 186.500320,408.351074 202.612793,410.005005 
	C202.612793,381.550568 202.612793,353.476929 202.612793,325.000671 
	C204.834442,325.000671 206.632706,325.000671 208.430984,325.000671 
	C246.415390,325.000671 284.399811,325.007690 322.384216,324.989929 
	C326.214081,324.988159 330.083344,325.162476 333.867584,324.704102 
	C368.071838,320.561218 396.211823,305.360626 418.637268,279.033569 
	C461.195038,229.071533 456.957245,150.185654 409.133179,105.082428 
	C387.942444,85.097260 363.027008,73.449982 333.209442,70.108086 
z"/>
<path fill="#010101" opacity="1.000000" stroke="none" 
	d="
M333.675812,70.131287 
	C363.027008,73.449982 387.942444,85.097260 409.133179,105.082428 
	C456.957245,150.185654 461.195038,229.071533 418.637268,279.033569 
	C396.211823,305.360626 368.071838,320.561218 333.867584,324.704102 
	C330.083344,325.162476 326.214081,324.988159 322.384216,324.989929 
	C284.399811,325.007690 246.415390,325.000671 208.430984,325.000671 
	C206.632706,325.000671 204.834442,325.000671 202.612793,325.000671 
	C202.612793,353.476929 202.612793,381.550568 202.612793,410.005005 
	C186.500320,408.351074 171.383514,404.610382 157.040146,398.242096 
	C102.832840,374.174652 68.799797,332.796417 57.532658,274.942963 
	C45.014820,210.667557 63.317364,154.887650 112.171371,110.612488 
	C142.139435,83.453178 178.076172,69.991295 218.759293,70.001564 
	C256.909332,70.011192 295.059387,70.070587 333.675812,70.131287 
M301.231659,151.670853 
	C276.554352,163.277298 265.926544,193.565842 277.851196,219.216873 
	C289.999298,245.348618 317.075745,253.525711 340.670380,243.653183 
	C365.606018,233.219574 376.663910,202.202133 365.536102,176.502243 
	C354.701141,151.478668 327.294464,140.613724 301.231659,151.670853 
z"/>
<path fill="#FEFEFE" opacity="1.000000" stroke="none" 
	d="
M301.555969,151.468872 
	C327.294464,140.613724 354.701141,151.478668 365.536102,176.502243 
	C376.663910,202.202133 365.606018,233.219574 340.670380,243.653183 
	C317.075745,253.525711 289.999298,245.348618 277.851196,219.216873 
	C265.926544,193.565842 276.554352,163.277298 301.555969,151.468872 
z"/>
</svg>